
        <svg xmlns="http://www.w3.org/2000/svg" xmlns:xlink="http://www.w3.org/1999/xlink" version="1.1" width="3171.4285714285716" 
        height="2503.1691556434203" viewBox="0 0 3171.4285714285716 2503.1691556434203">
			<rect fill="#e8d3ff" width="3171.4285714285716" height="2503.1691556434203"/>
			<g transform="scale(8.571428571428573) translate(10, 10)">
				<defs id="SvgjsDefs1099"></defs><g id="SvgjsG1100" featureKey="e7LhAk-0" transform="matrix(2.4221452008339006,0,0,2.4221452008339006,53.89273533842963,-18.6505175844335)" fill="#111111"><g xmlns="http://www.w3.org/2000/svg"><path d="M77.1,44.9c-1,0-1.8,0.8-1.8,1.8v0.4v6.3c0,2.8-2.2,5-5,5c-2.8,0-5-2.2-5-5c0-1.3-0.3-2.5-0.8-3.6   c-1.4-2.9-4.3-4.9-7.7-4.9c-4.7,0-8.5,3.8-8.5,8.5c0,0.2,0,0.3,0,0.4c-0.2,2.6-2.4,4.6-5,4.6c-1.8,0-3.3-0.9-4.2-2.3   c-0.5-0.8-0.8-1.7-0.8-2.7c0-4.7-3.8-8.5-8.5-8.5c-4.7,0-8.5,3.8-8.5,8.5v6.8c0,1,0.8,1.8,1.8,1.8c1,0,1.8-0.8,1.8-1.8v-0.4v-6.3   c0-2.8,2.2-5,5-5c2.8,0,5,2.2,5,5c0,1.3,0.3,2.5,0.8,3.6c1.4,2.9,4.3,4.9,7.7,4.9c4.7,0,8.5-3.8,8.5-8.5c0-0.2,0-0.3,0-0.4   c0.2-2.6,2.4-4.6,5-4.6c1.8,0,3.3,0.9,4.2,2.3c0.5,0.8,0.8,1.7,0.8,2.7c0,4.7,3.8,8.5,8.5,8.5c4.7,0,8.5-3.8,8.5-8.5v-6.8   C78.9,45.7,78.1,44.9,77.1,44.9z"></path><path d="M50,7.7c-15.9,0-28.9,13-28.9,28.9c0,1,0.8,1.8,1.8,1.8h54.2c1,0,1.8-0.8,1.8-1.8C78.9,20.7,65.9,7.7,50,7.7z M24.7,34.8   C25.6,21.7,36.6,11.3,50,11.3s24.4,10.4,25.3,23.6H24.7z"></path><path d="M77.1,78.9H22.9c-1,0-1.8,0.8-1.8,1.8v9.9c0,1,0.8,1.8,1.8,1.8h54.2c1,0,1.8-0.8,1.8-1.8v-9.9   C78.9,79.6,78.1,78.9,77.1,78.9z M75.4,88.7H24.6v-6.4h50.7V88.7z"></path><path d="M77.1,68.8H22.9c-1,0-1.8,0.8-1.8,1.8c0,1,0.8,1.8,1.8,1.8h54.2c1,0,1.8-0.8,1.8-1.8C78.9,69.6,78.1,68.8,77.1,68.8z"></path></g></g><g id="SvgjsG1101" featureKey="Qg0WB5-0" transform="matrix(2.6160401940634306,0,0,2.6160401940634306,-0.49704833231158513,219.11390956335728)" fill="#111111"><path d="M5.71 19.79 q-0.1 -0.17 -0.19 -0.35 t-0.16 -0.36 q-1.29 -3.4 -2.57 -6.74 t-2.57 -6.74 q0 -0.05 -0.015 -0.09 t-0.015 -0.08 q0 -0.28 0.37 -0.28 l3.22 0 q0.38 0 0.52 0.38 l3.06 9.11 l2.83 -9.11 q0.14 -0.38 0.55 -0.38 l3.25 0 q0.23 0 0.325 0.085 t0.095 0.225 q0 0.08 -0.01 0.11 l0 0.03 l-1.78 5.1 l1.34 3.93 l3.24 -9.1 q0.14 -0.38 0.55 -0.38 l3.15 0 q0.23 0 0.325 0.085 t0.095 0.225 q0 0.08 -0.01 0.11 l0 0.03 q-0.68 1.76 -1.39 3.51 t-1.425 3.5 t-1.42 3.505 t-1.375 3.505 q-0.04 0.11 -0.18 0.245 t-0.34 0.135 l-0.03 0 l-2.42 0 q-0.22 0 -0.335 -0.085 t-0.165 -0.225 l-1.58 -4.16 q-0.34 0.91 -0.67 1.785 t-0.66 1.785 q-0.05 0.14 -0.115 0.295 t-0.155 0.29 t-0.205 0.225 t-0.265 0.09 l-0.03 0 l-2.42 0 q-0.32 0 -0.42 -0.21 z M34.43 19.26 q0 0.17 -0.06 0.325 t-0.2 0.245 q-0.11 0.11 -0.26 0.14 t-0.26 0.03 l-1.97 0 q-0.21 0 -0.34 -0.055 t-0.21 -0.155 t-0.135 -0.245 t-0.115 -0.315 l-0.29 -0.75 q-0.27 0.27 -0.59 0.575 t-0.705 0.565 t-0.835 0.435 t-0.96 0.175 q-0.91 0 -1.745 -0.23 t-1.56 -0.655 t-1.315 -1.02 t-1.015 -1.325 t-0.655 -1.575 t-0.23 -1.765 q0 -1.39 0.51 -2.585 t1.39 -2.08 t2.07 -1.39 t2.55 -0.505 q0.62 0 1.14 0.185 t0.945 0.485 t0.77 0.68 t0.615 0.77 l0.39 -1.21 q0.1 -0.25 0.165 -0.405 t0.14 -0.23 t0.185 -0.1 t0.31 -0.025 l1.49 0 q0.11 0 0.26 0.03 t0.26 0.14 q0.14 0.11 0.2 0.25 t0.06 0.32 l0 11.27 z M24.58 13.66 q0 0.66 0.205 1.235 t0.585 0.995 t0.915 0.665 t1.185 0.245 q0.67 0 1.245 -0.245 t1 -0.665 t0.665 -0.995 t0.24 -1.235 q0 -0.64 -0.24 -1.22 t-0.665 -1.02 t-1 -0.695 t-1.245 -0.255 q-0.65 0 -1.185 0.255 t-0.915 0.695 t-0.585 1.02 t-0.205 1.22 z M37.09 7.47 q0.13 -0.11 0.275 -0.14 t0.275 -0.03 l1.51 0 q0.18 0 0.31 0.065 t0.22 0.175 t0.145 0.25 t0.105 0.29 l0.31 1.28 q0.15 -0.31 0.435 -0.705 t0.725 -0.74 t1.045 -0.58 t1.405 -0.235 q1.14 0 2.07 0.44 t1.585 1.2 t1.015 1.775 t0.36 2.165 l0 6.55 q0 0.38 -0.165 0.575 t-0.525 0.195 l-2.31 0 q-0.43 0 -0.59 -0.145 t-0.16 -0.565 l0 -6.51 q0 -0.43 -0.195 -0.815 t-0.515 -0.68 t-0.725 -0.465 t-0.825 -0.17 q-0.36 0 -0.735 0.16 t-0.69 0.445 t-0.53 0.67 t-0.245 0.835 l0 6.5 q0 0.17 -0.065 0.34 t-0.195 0.26 q-0.13 0.08 -0.245 0.11 t-0.265 0.03 l-2.26 0 q-0.43 0 -0.62 -0.21 t-0.19 -0.56 l0 -11.19 q0 -0.19 0.085 -0.35 t0.235 -0.25 z M60.03 18.45 q-0.27 0.27 -0.595 0.58 t-0.715 0.58 t-0.84 0.445 t-0.97 0.175 q-1.36 0 -2.505 -0.51 t-1.97 -1.395 t-1.29 -2.085 t-0.465 -2.58 q0 -1.39 0.465 -2.585 t1.29 -2.08 t1.97 -1.39 t2.505 -0.505 q0.55 0 1.005 0.16 t0.83 0.41 t0.69 0.565 t0.595 0.615 l0 -4.57 q0 -0.32 0.195 -0.54 t0.585 -0.22 l2.25 0 q0.13 0 0.275 0.055 t0.265 0.155 t0.195 0.24 t0.075 0.31 l0 14.95 q0 0.77 -0.81 0.77 l-1.96 0 q-0.2 0 -0.31 -0.05 t-0.185 -0.145 t-0.135 -0.24 t-0.15 -0.335 z M54.28 13.66 q0 0.66 0.205 1.235 t0.585 0.995 t0.915 0.665 t1.185 0.245 q0.64 0 1.205 -0.23 t0.985 -0.635 t0.675 -0.955 t0.285 -1.18 l0 -0.14 q0 -0.64 -0.24 -1.22 t-0.665 -1.02 t-1 -0.695 t-1.245 -0.255 q-0.65 0 -1.185 0.255 t-0.915 0.695 t-0.585 1.02 t-0.205 1.22 z M77.17 18.48 q-0.88 0.81 -1.98 1.265 t-2.33 0.455 q-1.37 0 -2.59 -0.5 t-2.14 -1.385 t-1.46 -2.085 t-0.54 -2.61 q0 -0.88 0.215 -1.705 t0.61 -1.545 t0.96 -1.325 t1.265 -1.035 t1.52 -0.67 t1.73 -0.24 q0.83 0 1.61 0.22 t1.465 0.62 t1.255 0.96 t0.98 1.225 t0.635 1.42 t0.225 1.555 q0 0.52 -0.015 0.85 t-0.155 0.525 t-0.465 0.27 t-0.955 0.075 l-7.2 0 q0.1 0.64 0.405 1.07 t0.705 0.685 t0.85 0.365 t0.85 0.11 q0.36 0 0.74 -0.075 t0.735 -0.2 t0.65 -0.29 t0.475 -0.345 q0.16 -0.13 0.275 -0.195 t0.245 -0.065 t0.265 0.09 t0.305 0.26 l1.06 1.2 q0.11 0.13 0.14 0.235 t0.03 0.215 q0 0.2 -0.11 0.345 t-0.26 0.255 z M72.36 10.15 q-0.39 0 -0.755 0.155 t-0.685 0.415 t-0.575 0.59 t-0.415 0.67 l5.11 0 q-0.21 -0.39 -0.455 -0.72 t-0.56 -0.58 t-0.72 -0.39 t-0.945 -0.14 z M80.69 8.04 q0 -0.17 0.075 -0.325 t0.185 -0.245 q0.26 -0.17 0.54 -0.17 l1.51 0 q0.19 0 0.3 0.07 t0.185 0.18 t0.13 0.25 t0.135 0.28 q0.02 0.04 0.08 0.195 t0.13 0.34 t0.135 0.35 t0.085 0.215 q0.3 -0.33 0.575 -0.695 t0.585 -0.675 t0.69 -0.51 t0.9 -0.2 q0.54 0 0.965 0.08 t0.805 0.235 t0.755 0.395 t0.815 0.56 q0.69 0.37 0.26 1.1 l-0.91 1.55 q-0.2 0.3 -0.49 0.37 t-0.63 -0.09 q-0.43 -0.42 -0.875 -0.625 t-1.015 -0.205 q-0.39 0 -0.685 0.11 t-0.535 0.31 t-0.45 0.48 t-0.42 0.62 l0 7.24 q0 0.38 -0.185 0.575 t-0.615 0.195 l-2.25 0 q-0.78 0 -0.78 -0.77 l0 -11.19 z M95.75 19.23 q-0.09 0.19 -0.15 0.335 t-0.135 0.24 t-0.185 0.145 t-0.3 0.05 l-1.98 0 q-0.8 0 -0.8 -0.77 l0 -14.94 q0 -0.17 0.065 -0.31 t0.17 -0.24 t0.24 -0.155 t0.265 -0.055 l2.27 0 q0.38 0 0.6 0.22 t0.22 0.54 l0 4.56 q0.28 -0.3 0.6 -0.61 t0.695 -0.565 t0.825 -0.415 t1 -0.16 q1.36 0 2.505 0.505 t1.97 1.39 t1.29 2.08 t0.465 2.585 q0 1.38 -0.465 2.58 t-1.29 2.085 t-1.97 1.395 t-2.505 0.51 q-0.51 0 -0.96 -0.175 t-0.84 -0.445 t-0.72 -0.58 t-0.6 -0.58 z M101.78 13.66 q0 -0.64 -0.205 -1.22 t-0.585 -1.02 t-0.91 -0.695 t-1.19 -0.255 t-1.235 0.255 t-0.995 0.695 t-0.665 1.02 t-0.245 1.22 l0 0.14 q0.03 0.63 0.285 1.18 t0.675 0.955 t0.98 0.635 t1.2 0.23 q0.66 0 1.19 -0.245 t0.91 -0.665 t0.585 -0.995 t0.205 -1.235 z M107.39 8.08 q0 -0.32 0.18 -0.55 t0.56 -0.23 l2.29 0 q0.12 0 0.26 0.055 t0.26 0.16 t0.205 0.245 t0.085 0.32 l0 11.15 q0 0.38 -0.21 0.575 t-0.6 0.195 l-2.29 0 q-0.74 0 -0.74 -0.77 l0 -11.15 z M107.39 3.02 q0 -0.42 0.18 -0.595 t0.56 -0.175 l2.32 0 q0.35 0 0.565 0.175 t0.215 0.595 l0 1.95 q0 0.12 -0.055 0.26 t-0.155 0.27 t-0.245 0.215 t-0.325 0.085 l-2.32 0 q-0.74 0 -0.74 -0.83 l0 -1.95 z M114.4 5.32 q0 -0.31 0.205 -0.465 t0.585 -0.295 l2.27 -0.79 q0.05 -0.01 0.095 -0.01 l0.085 0 q0.37 0 0.495 0.215 t0.125 0.565 l-0.01 3.15 l1.67 0 q0.32 0 0.52 0.19 t0.2 0.57 l0 1.93 q0 0.42 -0.2 0.615 t-0.52 0.195 l-1.67 0 l0.01 8.04 q0 0.38 -0.22 0.575 t-0.61 0.195 l-2.26 0 q-0.77 0 -0.77 -0.77 l-0.01 -8.04 l-0.73 0 q-0.77 0 -0.77 -0.81 l0 -1.93 q0 -0.76 0.77 -0.76 l0.73 0 z M132.55 18.48 q-0.88 0.81 -1.98 1.265 t-2.33 0.455 q-1.37 0 -2.59 -0.5 t-2.14 -1.385 t-1.46 -2.085 t-0.54 -2.61 q0 -0.88 0.215 -1.705 t0.61 -1.545 t0.96 -1.325 t1.265 -1.035 t1.52 -0.67 t1.73 -0.24 q0.83 0 1.61 0.22 t1.465 0.62 t1.255 0.96 t0.98 1.225 t0.635 1.42 t0.225 1.555 q0 0.52 -0.015 0.85 t-0.155 0.525 t-0.465 0.27 t-0.955 0.075 l-7.2 0 q0.1 0.64 0.405 1.07 t0.705 0.685 t0.85 0.365 t0.85 0.11 q0.36 0 0.74 -0.075 t0.735 -0.2 t0.65 -0.29 t0.475 -0.345 q0.16 -0.13 0.275 -0.195 t0.245 -0.065 t0.265 0.09 t0.305 0.26 l1.06 1.2 q0.11 0.13 0.14 0.235 t0.03 0.215 q0 0.2 -0.11 0.345 t-0.26 0.255 z M127.74 10.15 q-0.39 0 -0.755 0.155 t-0.685 0.415 t-0.575 0.59 t-0.415 0.67 l5.11 0 q-0.21 -0.39 -0.455 -0.72 t-0.56 -0.58 t-0.72 -0.39 t-0.945 -0.14 z"></path></g>
			</g>
		</svg>
	